<svg xmlns="http://www.w3.org/2000/svg" xmlns:xlink="http://www.w3.org/1999/xlink" width="1930" zoomAndPan="magnify" viewBox="0 0 1447.5 400.499988" height="534" preserveAspectRatio="xMidYMid meet" version="1.0"><defs><g/></defs><g fill="#ffffff" fill-opacity="1"><g transform="translate(37.385446, 238.776589)"><g><path d="M 67.546875 44.765625 L 55.890625 27.171875 C 56.410156 26.484375 57.101562 25.617188 57.96875 24.578125 C 58.832031 23.546875 60.644531 21.601562 63.40625 18.75 C 66.164062 15.90625 68.835938 13.40625 71.421875 11.25 C 74.015625 9.09375 77.035156 7.148438 80.484375 5.421875 C 83.929688 3.703125 87.125 2.84375 90.0625 2.84375 L 90.0625 1.8125 C 64.875 -3.019531 44.554688 -15.441406 29.109375 -35.453125 C 13.671875 -55.460938 5.953125 -79.269531 5.953125 -106.875 C 5.953125 -137.925781 16.300781 -164.101562 37 -185.40625 C 57.707031 -206.71875 82.8125 -217.375 112.3125 -217.375 C 141.988281 -217.375 167.085938 -206.71875 187.609375 -185.40625 C 208.140625 -164.101562 218.40625 -137.925781 218.40625 -106.875 C 218.40625 -81.507812 211.59375 -59.164062 197.96875 -39.84375 C 184.34375 -20.53125 166.398438 -7.507812 144.140625 -0.78125 L 144.140625 0.265625 C 145.171875 0.265625 149.738281 1.082031 157.84375 2.71875 C 165.957031 4.351562 172.429688 5.171875 177.265625 5.171875 C 183.816406 5.171875 189.765625 4.003906 195.109375 1.671875 C 200.460938 -0.648438 204.175781 -2.929688 206.25 -5.171875 L 209.359375 -8.796875 L 224.625 24.0625 C 224.28125 24.925781 223.71875 26.003906 222.9375 27.296875 C 222.164062 28.597656 220.398438 30.882812 217.640625 34.15625 C 214.878906 37.4375 211.816406 40.367188 208.453125 42.953125 C 205.085938 45.546875 200.597656 47.875 194.984375 49.9375 C 189.378906 52.007812 183.382812 53.046875 177 53.046875 C 166.476562 53.046875 153.625 49.679688 138.4375 42.953125 C 123.257812 36.222656 110.148438 32.859375 99.109375 32.859375 C 93.078125 32.859375 87.425781 33.847656 82.15625 35.828125 C 76.894531 37.816406 73.144531 39.847656 70.90625 41.921875 Z M 58.484375 -106.875 C 58.484375 -98.59375 59.429688 -90.867188 61.328125 -83.703125 C 63.222656 -76.546875 66.195312 -70.035156 70.25 -64.171875 C 74.3125 -58.304688 79.921875 -53.691406 87.078125 -50.328125 C 94.234375 -46.960938 102.644531 -45.28125 112.3125 -45.28125 C 130.425781 -45.28125 143.878906 -51.144531 152.671875 -62.875 C 161.472656 -74.613281 165.875 -89.28125 165.875 -106.875 C 165.875 -124.300781 161.390625 -138.921875 152.421875 -150.734375 C 143.453125 -162.554688 130.082031 -168.46875 112.3125 -168.46875 C 94.71875 -168.46875 81.347656 -162.515625 72.203125 -150.609375 C 63.054688 -138.703125 58.484375 -124.125 58.484375 -106.875 Z M 58.484375 -106.875 "/></g></g></g><g fill="#ffffff" fill-opacity="1"><g transform="translate(261.746783, 238.776589)"><g><path d="M 179.328125 0 L 145.171875 -119.8125 L 111.015625 0 L 56.9375 0 L -3.875 -213.5 L 50.203125 -213.5 L 86.6875 -67.03125 L 87.984375 -67.03125 L 126.796875 -213.5 L 163.546875 -213.5 L 202.359375 -67.03125 L 203.65625 -67.03125 L 240.15625 -213.5 L 293.96875 -213.5 L 233.15625 0 Z M 179.328125 0 "/></g></g></g><g fill="#ffffff" fill-opacity="1"><g transform="translate(551.838054, 238.776589)"><g><path d="M 123.953125 -213.5 L 210.125 0 L 157.859375 0 L 142.078125 -42.703125 L 60.8125 -42.703125 L 45.03125 0 L -7.25 0 L 78.921875 -213.5 Z M 125.515625 -85.390625 L 101.703125 -147.5 L 101.1875 -147.5 L 77.375 -85.390625 Z M 125.515625 -85.390625 "/></g></g></g><g fill="#ffffff" fill-opacity="1"><g transform="translate(754.720767, 238.776589)"><g><path d="M 64.171875 -132.5 L 64.171875 0 L 15.53125 0 L 15.53125 -213.5 L 64.171875 -213.5 L 149.0625 -81 L 149.578125 -81 L 149.578125 -213.5 L 198.21875 -213.5 L 198.21875 0 L 149.578125 0 L 64.6875 -132.5 Z M 64.171875 -132.5 "/></g></g></g><g fill="#ffffff" fill-opacity="1"><g transform="translate(968.472239, 238.776589)"><g><path d="M 2.0625 -170.796875 L 2.0625 -213.5 L 152.15625 -213.5 L 152.15625 -170.796875 L 101.4375 -170.796875 L 101.4375 0 L 52.796875 0 L 52.796875 -170.796875 Z M 2.0625 -170.796875 "/></g></g></g><g fill="#ffffff" fill-opacity="1"><g transform="translate(1122.704423, 238.776589)"><g><path d="M 64.171875 -213.5 L 64.171875 0 L 15.53125 0 L 15.53125 -213.5 Z M 64.171875 -213.5 "/></g></g></g><g fill="#635bff" fill-opacity="1"><g transform="translate(1202.415268, 238.776589)"><g><path d="M 215.3125 0 L 152.421875 0 L 101.953125 -72.71875 L 51.5 0 L -8.796875 0 L 71.9375 -114.90625 L 4.65625 -213.5 L 62.625 -213.5 L 101.953125 -155.265625 L 141.296875 -213.5 L 201.84375 -213.5 L 131.984375 -114.90625 Z M 215.3125 0 "/></g></g></g><g fill="#ffffff" fill-opacity="1"><g transform="translate(826.323401, 378.090507)"><g><path d="M 61.984375 -106.75 L 105.0625 0 L 78.921875 0 L 71.03125 -21.34375 L 30.40625 -21.34375 L 22.515625 0 L -3.625 0 L 39.46875 -106.75 Z M 62.75 -42.703125 L 50.84375 -73.75 L 50.59375 -73.75 L 38.6875 -42.703125 Z M 62.75 -42.703125 "/></g></g></g><g fill="#ffffff" fill-opacity="1"><g transform="translate(927.764495, 378.090507)"><g><path d="M 104.28125 -59.78125 L 104.28125 -36.625 C 101.519531 -23.9375 95.484375 -14.335938 86.171875 -7.828125 C 76.859375 -1.316406 66.460938 1.9375 54.984375 1.9375 C 40.578125 1.9375 28.304688 -3.453125 18.171875 -14.234375 C 8.035156 -25.015625 2.96875 -38.039062 2.96875 -53.3125 C 2.96875 -68.832031 7.925781 -81.941406 17.84375 -92.640625 C 27.769531 -103.335938 40.148438 -108.6875 54.984375 -108.6875 C 72.328125 -108.6875 86.046875 -102.601562 96.140625 -90.4375 L 80.21875 -72.96875 C 74.53125 -82.113281 66.597656 -86.6875 56.421875 -86.6875 C 48.910156 -86.6875 42.503906 -83.429688 37.203125 -76.921875 C 31.898438 -70.410156 29.25 -62.539062 29.25 -53.3125 C 29.25 -44.25 31.898438 -36.503906 37.203125 -30.078125 C 42.503906 -23.648438 48.910156 -20.4375 56.421875 -20.4375 C 62.628906 -20.4375 68.039062 -22.3125 72.65625 -26.0625 C 77.269531 -29.820312 79.578125 -34.804688 79.578125 -41.015625 L 54.984375 -41.015625 L 54.984375 -59.78125 Z M 104.28125 -59.78125 "/></g></g></g><g fill="#ffffff" fill-opacity="1"><g transform="translate(1035.028101, 378.090507)"><g><path d="M 68.828125 -106.75 L 68.828125 -85.390625 L 32.09375 -85.390625 L 32.09375 -64.171875 L 67.28125 -64.171875 L 67.28125 -42.828125 L 32.09375 -42.828125 L 32.09375 -21.34375 L 68.828125 -21.34375 L 68.828125 0 L 7.765625 0 L 7.765625 -106.75 Z M 68.828125 -106.75 "/></g></g></g><g fill="#ffffff" fill-opacity="1"><g transform="translate(1110.073795, 378.090507)"><g><path d="M 32.09375 -66.25 L 32.09375 0 L 7.765625 0 L 7.765625 -106.75 L 32.09375 -106.75 L 74.53125 -40.5 L 74.78125 -40.5 L 74.78125 -106.75 L 99.109375 -106.75 L 99.109375 0 L 74.78125 0 L 32.34375 -66.25 Z M 32.09375 -66.25 "/></g></g></g><g fill="#ffffff" fill-opacity="1"><g transform="translate(1216.949256, 378.090507)"><g><path d="M 64.5625 -22 C 68.269531 -22 71.867188 -22.554688 75.359375 -23.671875 C 78.859375 -24.796875 81.425781 -25.875 83.0625 -26.90625 L 85.53125 -28.59375 L 95.875 -7.890625 C 95.53125 -7.628906 95.054688 -7.28125 94.453125 -6.84375 C 93.847656 -6.414062 92.445312 -5.617188 90.25 -4.453125 C 88.050781 -3.296875 85.703125 -2.285156 83.203125 -1.421875 C 80.703125 -0.554688 77.421875 0.21875 73.359375 0.90625 C 69.304688 1.59375 65.125 1.9375 60.8125 1.9375 C 50.894531 1.9375 41.492188 -0.5 32.609375 -5.375 C 23.722656 -10.25 16.5625 -16.953125 11.125 -25.484375 C 5.6875 -34.023438 2.96875 -43.253906 2.96875 -53.171875 C 2.96875 -60.679688 4.5625 -67.882812 7.75 -74.78125 C 10.945312 -81.6875 15.195312 -87.597656 20.5 -92.515625 C 25.8125 -97.429688 32.003906 -101.351562 39.078125 -104.28125 C 46.148438 -107.21875 53.394531 -108.6875 60.8125 -108.6875 C 67.71875 -108.6875 74.078125 -107.863281 79.890625 -106.21875 C 85.710938 -104.582031 89.832031 -102.945312 92.25 -101.3125 L 95.875 -98.859375 L 85.53125 -78.15625 C 84.925781 -78.664062 84.019531 -79.285156 82.8125 -80.015625 C 81.601562 -80.753906 79.1875 -81.726562 75.5625 -82.9375 C 71.9375 -84.144531 68.269531 -84.75 64.5625 -84.75 C 58.695312 -84.75 53.4375 -83.800781 48.78125 -81.90625 C 44.125 -80.007812 40.4375 -77.503906 37.71875 -74.390625 C 35 -71.285156 32.925781 -67.941406 31.5 -64.359375 C 30.082031 -60.785156 29.375 -57.144531 29.375 -53.4375 C 29.375 -45.332031 32.410156 -38.066406 38.484375 -31.640625 C 44.566406 -25.210938 53.257812 -22 64.5625 -22 Z M 64.5625 -22 "/></g></g></g><g fill="#ffffff" fill-opacity="1"><g transform="translate(1314.379249, 378.090507)"><g><path d="M -3.875 -106.75 L 25.359375 -106.75 L 47.609375 -72.59375 L 69.875 -106.75 L 99.109375 -106.75 L 59.78125 -47.875 L 59.78125 0 L 35.453125 0 L 35.453125 -47.875 Z M -3.875 -106.75 "/></g></g></g></svg>