<svg xmlns="http://www.w3.org/2000/svg" xmlns:xlink="http://www.w3.org/1999/xlink" width="1930" zoomAndPan="magnify" viewBox="0 0 1447.5 400.499988" height="534" preserveAspectRatio="xMidYMid meet" version="1.0"><defs><g/><clipPath id="67447d06ff"><path d="M 0.328125 0.710938 L 1385.316406 0.710938 L 1385.316406 324 L 0.328125 324 Z M 0.328125 0.710938 " clip-rule="nonzero"/></clipPath><clipPath id="000b1bd06f"><rect x="0" width="1386" y="0" height="324"/></clipPath><clipPath id="544732b1ee"><path d="M 776 253 L 1385.316406 253 L 1385.316406 394 L 776 394 Z M 776 253 " clip-rule="nonzero"/></clipPath><clipPath id="f399c02f24"><rect x="0" width="610" y="0" height="141"/></clipPath><clipPath id="6bb52a5163"><rect x="0" width="1386" y="0" height="394"/></clipPath></defs><g transform="matrix(1, 0, 0, 1, 37, 6)"><g clip-path="url(#6bb52a5163)"><g clip-path="url(#67447d06ff)"><g transform="matrix(1, 0, 0, 1, 0, -0.000000000000001776)"><g clip-path="url(#000b1bd06f)"><g fill="#0a2540" fill-opacity="1"><g transform="translate(0.385446, 229.21537)"><g><path d="M 67.53125 44.765625 L 55.890625 27.171875 C 56.410156 26.484375 57.097656 25.617188 57.953125 24.578125 C 58.816406 23.546875 60.628906 21.601562 63.390625 18.75 C 66.148438 15.90625 68.820312 13.40625 71.40625 11.25 C 74 9.09375 77.019531 7.148438 80.46875 5.421875 C 83.914062 3.703125 87.109375 2.84375 90.046875 2.84375 L 90.046875 1.8125 C 64.859375 -3.019531 44.546875 -15.441406 29.109375 -35.453125 C 13.671875 -55.460938 5.953125 -79.265625 5.953125 -106.859375 C 5.953125 -137.910156 16.300781 -164.085938 37 -185.390625 C 57.695312 -206.691406 82.796875 -217.34375 112.296875 -217.34375 C 141.960938 -217.34375 167.0625 -206.691406 187.59375 -185.390625 C 208.125 -164.085938 218.390625 -137.910156 218.390625 -106.859375 C 218.390625 -81.503906 211.570312 -59.164062 197.9375 -39.84375 C 184.3125 -20.53125 166.375 -7.507812 144.125 -0.78125 L 144.125 0.265625 C 145.15625 0.265625 149.722656 1.082031 157.828125 2.71875 C 165.941406 4.351562 172.414062 5.171875 177.25 5.171875 C 183.800781 5.171875 189.75 4.003906 195.09375 1.671875 C 200.445312 -0.648438 204.15625 -2.929688 206.21875 -5.171875 L 209.328125 -8.796875 L 224.59375 24.0625 C 224.25 24.925781 223.6875 26.003906 222.90625 27.296875 C 222.132812 28.585938 220.367188 30.875 217.609375 34.15625 C 214.847656 37.4375 211.785156 40.367188 208.421875 42.953125 C 205.054688 45.535156 200.570312 47.863281 194.96875 49.9375 C 189.363281 52.007812 183.367188 53.046875 176.984375 53.046875 C 166.460938 53.046875 153.609375 49.679688 138.421875 42.953125 C 123.242188 36.222656 110.132812 32.859375 99.09375 32.859375 C 93.0625 32.859375 87.414062 33.847656 82.15625 35.828125 C 76.894531 37.816406 73.140625 39.847656 70.890625 41.921875 Z M 58.484375 -106.859375 C 58.484375 -98.578125 59.429688 -90.859375 61.328125 -83.703125 C 63.222656 -76.546875 66.195312 -70.035156 70.25 -64.171875 C 74.300781 -58.304688 79.90625 -53.691406 87.0625 -50.328125 C 94.226562 -46.960938 102.640625 -45.28125 112.296875 -45.28125 C 130.410156 -45.28125 143.863281 -51.144531 152.65625 -62.875 C 161.457031 -74.601562 165.859375 -89.265625 165.859375 -106.859375 C 165.859375 -124.285156 161.375 -138.90625 152.40625 -150.71875 C 143.4375 -162.539062 130.066406 -168.453125 112.296875 -168.453125 C 94.703125 -168.453125 81.332031 -162.5 72.1875 -150.59375 C 63.050781 -138.6875 58.484375 -124.109375 58.484375 -106.859375 Z M 58.484375 -106.859375 "/></g></g></g><g fill="#0a2540" fill-opacity="1"><g transform="translate(224.652093, 229.21537)"><g><path d="M 179.3125 0 L 145.15625 -119.796875 L 111 0 L 56.921875 0 L -3.875 -213.46875 L 50.203125 -213.46875 L 86.6875 -67.015625 L 87.96875 -67.015625 L 126.78125 -213.46875 L 163.53125 -213.46875 L 202.34375 -67.015625 L 203.640625 -67.015625 L 240.125 -213.46875 L 293.9375 -213.46875 L 233.140625 0 Z M 179.3125 0 "/></g></g></g><g fill="#0a2540" fill-opacity="1"><g transform="translate(514.620863, 229.21537)"><g><path d="M 123.9375 -213.46875 L 210.109375 0 L 157.84375 0 L 142.046875 -42.6875 L 60.8125 -42.6875 L 45.015625 0 L -7.25 0 L 78.921875 -213.46875 Z M 125.5 -85.390625 L 101.6875 -147.484375 L 101.171875 -147.484375 L 77.359375 -85.390625 Z M 125.5 -85.390625 "/></g></g></g><g fill="#0a2540" fill-opacity="1"><g transform="translate(717.417937, 229.21537)"><g><path d="M 64.171875 -132.484375 L 64.171875 0 L 15.53125 0 L 15.53125 -213.46875 L 64.171875 -213.46875 L 149.046875 -80.984375 L 149.5625 -80.984375 L 149.5625 -213.46875 L 198.203125 -213.46875 L 198.203125 0 L 149.5625 0 L 64.6875 -132.484375 Z M 64.171875 -132.484375 "/></g></g></g><g fill="#0a2540" fill-opacity="1"><g transform="translate(931.07917, 229.21537)"><g><path d="M 2.0625 -170.78125 L 2.0625 -213.46875 L 152.140625 -213.46875 L 152.140625 -170.78125 L 101.4375 -170.78125 L 101.4375 0 L 52.78125 0 L 52.78125 -170.78125 Z M 2.0625 -170.78125 "/></g></g></g><g fill="#0a2540" fill-opacity="1"><g transform="translate(1085.246317, 229.21537)"><g><path d="M 64.171875 -213.46875 L 64.171875 0 L 15.53125 0 L 15.53125 -213.46875 Z M 64.171875 -213.46875 "/></g></g></g><g fill="#635bff" fill-opacity="1"><g transform="translate(1164.942575, 229.21537)"><g><path d="M 215.28125 0 L 152.40625 0 L 101.953125 -72.703125 L 51.484375 0 L -8.796875 0 L 71.9375 -114.890625 L 4.65625 -213.46875 L 62.625 -213.46875 L 101.953125 -155.25 L 141.28125 -213.46875 L 201.828125 -213.46875 L 131.96875 -114.890625 Z M 215.28125 0 "/></g></g></g></g></g></g><g clip-path="url(#544732b1ee)"><g transform="matrix(1, 0, 0, 1, 776, 253)"><g clip-path="url(#f399c02f24)"><g fill="#0a2540" fill-opacity="1"><g transform="translate(13.233289, 116.918254)"><g><path d="M 61.984375 -106.75 L 105.0625 0 L 78.921875 0 L 71.03125 -21.34375 L 30.40625 -21.34375 L 22.515625 0 L -3.625 0 L 39.46875 -106.75 Z M 62.75 -42.703125 L 50.84375 -73.75 L 50.59375 -73.75 L 38.6875 -42.703125 Z M 62.75 -42.703125 "/></g></g></g><g fill="#0a2540" fill-opacity="1"><g transform="translate(114.675881, 116.918254)"><g><path d="M 104.28125 -59.78125 L 104.28125 -36.625 C 101.519531 -23.9375 95.484375 -14.335938 86.171875 -7.828125 C 76.859375 -1.316406 66.460938 1.9375 54.984375 1.9375 C 40.578125 1.9375 28.304688 -3.453125 18.171875 -14.234375 C 8.035156 -25.015625 2.96875 -38.039062 2.96875 -53.3125 C 2.96875 -68.832031 7.925781 -81.941406 17.84375 -92.640625 C 27.769531 -103.335938 40.148438 -108.6875 54.984375 -108.6875 C 72.328125 -108.6875 86.046875 -102.601562 96.140625 -90.4375 L 80.21875 -72.96875 C 74.53125 -82.113281 66.597656 -86.6875 56.421875 -86.6875 C 48.910156 -86.6875 42.503906 -83.429688 37.203125 -76.921875 C 31.898438 -70.410156 29.25 -62.539062 29.25 -53.3125 C 29.25 -44.25 31.898438 -36.503906 37.203125 -30.078125 C 42.503906 -23.648438 48.910156 -20.4375 56.421875 -20.4375 C 62.628906 -20.4375 68.039062 -22.3125 72.65625 -26.0625 C 77.269531 -29.820312 79.578125 -34.804688 79.578125 -41.015625 L 54.984375 -41.015625 L 54.984375 -59.78125 Z M 104.28125 -59.78125 "/></g></g></g><g fill="#0a2540" fill-opacity="1"><g transform="translate(221.941034, 116.918254)"><g><path d="M 68.828125 -106.75 L 68.828125 -85.390625 L 32.09375 -85.390625 L 32.09375 -64.171875 L 67.28125 -64.171875 L 67.28125 -42.828125 L 32.09375 -42.828125 L 32.09375 -21.34375 L 68.828125 -21.34375 L 68.828125 0 L 7.765625 0 L 7.765625 -106.75 Z M 68.828125 -106.75 "/></g></g></g><g fill="#0a2540" fill-opacity="1"><g transform="translate(296.987824, 116.918254)"><g><path d="M 32.09375 -66.25 L 32.09375 0 L 7.765625 0 L 7.765625 -106.75 L 32.09375 -106.75 L 74.53125 -40.5 L 74.78125 -40.5 L 74.78125 -106.75 L 99.109375 -106.75 L 99.109375 0 L 74.78125 0 L 32.34375 -66.25 Z M 32.09375 -66.25 "/></g></g></g><g fill="#0a2540" fill-opacity="1"><g transform="translate(403.864819, 116.918254)"><g><path d="M 64.5625 -22 C 68.269531 -22 71.867188 -22.554688 75.359375 -23.671875 C 78.859375 -24.796875 81.425781 -25.875 83.0625 -26.90625 L 85.53125 -28.59375 L 95.875 -7.890625 C 95.53125 -7.628906 95.054688 -7.28125 94.453125 -6.84375 C 93.847656 -6.414062 92.445312 -5.617188 90.25 -4.453125 C 88.050781 -3.296875 85.703125 -2.285156 83.203125 -1.421875 C 80.703125 -0.554688 77.421875 0.21875 73.359375 0.90625 C 69.304688 1.59375 65.125 1.9375 60.8125 1.9375 C 50.894531 1.9375 41.492188 -0.5 32.609375 -5.375 C 23.722656 -10.25 16.5625 -16.953125 11.125 -25.484375 C 5.6875 -34.023438 2.96875 -43.253906 2.96875 -53.171875 C 2.96875 -60.679688 4.5625 -67.882812 7.75 -74.78125 C 10.945312 -81.6875 15.195312 -87.597656 20.5 -92.515625 C 25.8125 -97.429688 32.003906 -101.351562 39.078125 -104.28125 C 46.148438 -107.21875 53.394531 -108.6875 60.8125 -108.6875 C 67.71875 -108.6875 74.078125 -107.863281 79.890625 -106.21875 C 85.710938 -104.582031 89.832031 -102.945312 92.25 -101.3125 L 95.875 -98.859375 L 85.53125 -78.15625 C 84.925781 -78.664062 84.019531 -79.285156 82.8125 -80.015625 C 81.601562 -80.753906 79.1875 -81.726562 75.5625 -82.9375 C 71.9375 -84.144531 68.269531 -84.75 64.5625 -84.75 C 58.695312 -84.75 53.4375 -83.800781 48.78125 -81.90625 C 44.125 -80.007812 40.4375 -77.503906 37.71875 -74.390625 C 35 -71.285156 32.925781 -67.941406 31.5 -64.359375 C 30.082031 -60.785156 29.375 -57.144531 29.375 -53.4375 C 29.375 -45.332031 32.410156 -38.066406 38.484375 -31.640625 C 44.566406 -25.210938 53.257812 -22 64.5625 -22 Z M 64.5625 -22 "/></g></g></g><g fill="#0a2540" fill-opacity="1"><g transform="translate(501.296218, 116.918254)"><g><path d="M -3.875 -106.75 L 25.359375 -106.75 L 47.609375 -72.59375 L 69.875 -106.75 L 99.109375 -106.75 L 59.78125 -47.875 L 59.78125 0 L 35.453125 0 L 35.453125 -47.875 Z M -3.875 -106.75 "/></g></g></g></g></g></g></g></g></svg>